<mxfile host="app.diagrams.net" modified="2021-02-17T09:57:31.176Z" agent="5.0 (Macintosh; Intel Mac OS X 10_13_6) AppleWebKit/605.1.15 (KHTML, like Gecko) Version/13.1.2 Safari/605.1.15" etag="jCYAgZnPNEP1KTGTPBRS" version="14.3.1" type="github">
  <diagram id="Ws8UM9eGZzYytv4qZZBu" name="Page-1">
    <mxGraphModel dx="2248" dy="696" grid="1" gridSize="10" guides="1" tooltips="1" connect="1" arrows="1" fold="1" page="1" pageScale="1" pageWidth="850" pageHeight="1100" math="0" shadow="0">
      <root>
        <mxCell id="0" />
        <mxCell id="1" parent="0" />
        <mxCell id="G6jSrBH-n4NakRMyt-s5-2" value="3.0&lt;br&gt;&lt;hr&gt;טיפול בחולה" style="rounded=1;whiteSpace=wrap;html=1;fillColor=#FF99FF;" vertex="1" parent="1">
          <mxGeometry x="680" y="650" width="160" height="82.5" as="geometry" />
        </mxCell>
        <mxCell id="G6jSrBH-n4NakRMyt-s5-3" value="2.0&lt;br&gt;&lt;hr&gt;ניהול תיק רפואי" style="rounded=1;whiteSpace=wrap;html=1;fillColor=#FF99FF;" vertex="1" parent="1">
          <mxGeometry x="680" y="285" width="160" height="80" as="geometry" />
        </mxCell>
        <mxCell id="G6jSrBH-n4NakRMyt-s5-75" value="" style="edgeStyle=orthogonalEdgeStyle;rounded=0;orthogonalLoop=1;jettySize=auto;html=1;" edge="1" parent="1" target="G6jSrBH-n4NakRMyt-s5-72">
          <mxGeometry relative="1" as="geometry">
            <mxPoint x="130" y="718" as="sourcePoint" />
          </mxGeometry>
        </mxCell>
        <mxCell id="G6jSrBH-n4NakRMyt-s5-77" value="עדכון&lt;br&gt;נתוני&lt;br&gt;תיק הטופל" style="edgeLabel;html=1;align=center;verticalAlign=middle;resizable=0;points=[];" vertex="1" connectable="0" parent="G6jSrBH-n4NakRMyt-s5-75">
          <mxGeometry x="-0.1156" y="-2" relative="1" as="geometry">
            <mxPoint as="offset" />
          </mxGeometry>
        </mxCell>
        <mxCell id="G6jSrBH-n4NakRMyt-s5-5" value="4.0&lt;br&gt;&lt;hr&gt;טיפול בהחרגה" style="rounded=1;whiteSpace=wrap;html=1;fillColor=#FF99FF;" vertex="1" parent="1">
          <mxGeometry x="130" y="681.25" width="150" height="58.75" as="geometry" />
        </mxCell>
        <mxCell id="G6jSrBH-n4NakRMyt-s5-85" value="עדכון&lt;br&gt;נתוני&lt;br&gt;עיבוד" style="edgeStyle=orthogonalEdgeStyle;rounded=0;orthogonalLoop=1;jettySize=auto;html=1;" edge="1" parent="1" source="G6jSrBH-n4NakRMyt-s5-6" target="G6jSrBH-n4NakRMyt-s5-82">
          <mxGeometry relative="1" as="geometry" />
        </mxCell>
        <mxCell id="G6jSrBH-n4NakRMyt-s5-6" value="5.0&lt;br&gt;&lt;hr&gt;תיעודים&lt;span style=&quot;color: rgba(0 , 0 , 0 , 0) ; font-family: monospace ; font-size: 0px&quot;&gt;%3CmxGraphModel%3E%3Croot%3E%3CmxCell%20id%3D%220%22%2F%3E%3CmxCell%20id%3D%221%22%20parent%3D%220%22%2F%3E%3CmxCell%20id%3D%222%22%20value%3D%222.0%26lt%3Bbr%26gt%3B%D7%A0%D7%99%D7%94%D7%95%D7%9C%20%D7%AA%D7%99%D7%A7%20%D7%A8%D7%A4%D7%95%D7%90%D7%99%22%20style%3D%22rounded%3D1%3BwhiteSpace%3Dwrap%3Bhtml%3D1%3BfillColor%3D%23FF99FF%3B%22%20vertex%3D%221%22%20parent%3D%221%22%3E%3CmxGeometry%20x%3D%22220%22%20y%3D%22350%22%20width%3D%22120%22%20height%3D%2260%22%20as%3D%22geometry%22%2F%3E%3C%2FmxCell%3E%3C%2Froot%3E%3C%2FmxGraphModel%3E&lt;/span&gt;" style="rounded=1;whiteSpace=wrap;html=1;fillColor=#FF99FF;" vertex="1" parent="1">
          <mxGeometry x="380" y="950" width="150" height="60" as="geometry" />
        </mxCell>
        <mxCell id="G6jSrBH-n4NakRMyt-s5-64" value="הפקת דו״ח&lt;br&gt;&amp;nbsp;סיכום יומי" style="edgeStyle=orthogonalEdgeStyle;rounded=0;orthogonalLoop=1;jettySize=auto;html=1;" edge="1" parent="1" source="G6jSrBH-n4NakRMyt-s5-7" target="G6jSrBH-n4NakRMyt-s5-63">
          <mxGeometry relative="1" as="geometry" />
        </mxCell>
        <mxCell id="G6jSrBH-n4NakRMyt-s5-7" value="6.0&lt;hr&gt;דוחות" style="rounded=1;whiteSpace=wrap;html=1;fillColor=#FF99FF;" vertex="1" parent="1">
          <mxGeometry x="960" y="905" width="120" height="60" as="geometry" />
        </mxCell>
        <mxCell id="G6jSrBH-n4NakRMyt-s5-70" value="בקשת &lt;br&gt;החרגה" style="edgeStyle=orthogonalEdgeStyle;rounded=0;orthogonalLoop=1;jettySize=auto;html=1;exitX=0.75;exitY=1;exitDx=0;exitDy=0;entryX=0.68;entryY=-0.055;entryDx=0;entryDy=0;entryPerimeter=0;" edge="1" parent="1" source="G6jSrBH-n4NakRMyt-s5-9" target="G6jSrBH-n4NakRMyt-s5-5">
          <mxGeometry relative="1" as="geometry" />
        </mxCell>
        <mxCell id="G6jSrBH-n4NakRMyt-s5-9" value="מטופל&lt;span style=&quot;color: rgba(0 , 0 , 0 , 0) ; font-family: monospace ; font-size: 0px&quot;&gt;%3CmxGraphModel%3E%3Croot%3E%3CmxCell%20id%3D%220%22%2F%3E%3CmxCell%20id%3D%221%22%20parent%3D%220%22%2F%3E%3CmxCell%20id%3D%222%22%20value%3D%222.0%26lt%3Bbr%26gt%3B%D7%A0%D7%99%D7%94%D7%95%D7%9C%20%D7%AA%D7%99%D7%A7%20%D7%A8%D7%A4%D7%95%D7%90%D7%99%22%20style%3D%22rounded%3D1%3BwhiteSpace%3Dwrap%3Bhtml%3D1%3BfillColor%3D%23FF99FF%3B%22%20vertex%3D%221%22%20parent%3D%221%22%3E%3CmxGeometry%20x%3D%22220%22%20y%3D%22350%22%20width%3D%22120%22%20height%3D%2260%22%20as%3D%22geometry%22%2F%3E%3C%2FmxCell%3E%3C%2Froot%3E%3C%2FmxGraphModel%3E&lt;/span&gt;" style="rounded=0;whiteSpace=wrap;html=1;gradientColor=#ffffff;fillColor=#FFCCE6;" vertex="1" parent="1">
          <mxGeometry x="150" y="540" width="110" height="50" as="geometry" />
        </mxCell>
        <mxCell id="G6jSrBH-n4NakRMyt-s5-10" value="הרופא המטפל" style="rounded=0;whiteSpace=wrap;html=1;fillColor=#FFCCE6;gradientColor=#ffffff;" vertex="1" parent="1">
          <mxGeometry x="390" y="659.38" width="130" height="63.75" as="geometry" />
        </mxCell>
        <mxCell id="G6jSrBH-n4NakRMyt-s5-11" value="צה״ל" style="rounded=0;whiteSpace=wrap;html=1;fillColor=#FFCCE6;gradientColor=#ffffff;" vertex="1" parent="1">
          <mxGeometry x="545" y="120" width="110" height="50" as="geometry" />
        </mxCell>
        <mxCell id="G6jSrBH-n4NakRMyt-s5-14" value="קופת חולים" style="rounded=0;whiteSpace=wrap;html=1;gradientColor=#ffffff;fillColor=#FFCCE6;" vertex="1" parent="1">
          <mxGeometry x="700" y="120" width="110" height="50" as="geometry" />
        </mxCell>
        <mxCell id="G6jSrBH-n4NakRMyt-s5-15" value="בית- חולים" style="rounded=0;whiteSpace=wrap;html=1;gradientColor=#ffffff;fillColor=#FFCCE6;" vertex="1" parent="1">
          <mxGeometry x="860" y="120" width="110" height="50" as="geometry" />
        </mxCell>
        <mxCell id="G6jSrBH-n4NakRMyt-s5-25" value="נתוני תיק&lt;br&gt;&amp;nbsp;רפואי&lt;br&gt;חייל" style="endArrow=classic;html=1;entryX=0.75;entryY=1;entryDx=0;entryDy=0;" edge="1" parent="1" target="G6jSrBH-n4NakRMyt-s5-11">
          <mxGeometry x="0.4089" width="50" height="50" relative="1" as="geometry">
            <mxPoint x="676" y="325" as="sourcePoint" />
            <mxPoint x="590" y="300" as="targetPoint" />
            <Array as="points">
              <mxPoint x="628" y="325" />
            </Array>
            <mxPoint as="offset" />
          </mxGeometry>
        </mxCell>
        <mxCell id="G6jSrBH-n4NakRMyt-s5-26" value="" style="endArrow=classic;html=1;exitX=0.355;exitY=1.04;exitDx=0;exitDy=0;exitPerimeter=0;entryX=0;entryY=1;entryDx=0;entryDy=0;" edge="1" parent="1" source="G6jSrBH-n4NakRMyt-s5-11" target="G6jSrBH-n4NakRMyt-s5-3">
          <mxGeometry width="50" height="50" relative="1" as="geometry">
            <mxPoint x="540" y="350" as="sourcePoint" />
            <mxPoint x="590" y="300" as="targetPoint" />
            <Array as="points">
              <mxPoint x="584" y="365" />
            </Array>
          </mxGeometry>
        </mxCell>
        <mxCell id="G6jSrBH-n4NakRMyt-s5-27" value="נתוני מידע&amp;nbsp;&lt;br&gt;רפואי חייל" style="edgeLabel;html=1;align=center;verticalAlign=middle;resizable=0;points=[];" vertex="1" connectable="0" parent="G6jSrBH-n4NakRMyt-s5-26">
          <mxGeometry x="-0.2526" y="4" relative="1" as="geometry">
            <mxPoint as="offset" />
          </mxGeometry>
        </mxCell>
        <mxCell id="G6jSrBH-n4NakRMyt-s5-28" value="נתוני תיק&lt;br&gt;רפואי - מבוטח" style="endArrow=classic;html=1;entryX=0.164;entryY=1.12;entryDx=0;entryDy=0;entryPerimeter=0;" edge="1" parent="1" target="G6jSrBH-n4NakRMyt-s5-14">
          <mxGeometry x="0.3462" width="50" height="50" relative="1" as="geometry">
            <mxPoint x="718" y="280" as="sourcePoint" />
            <mxPoint x="630" y="300" as="targetPoint" />
            <mxPoint as="offset" />
          </mxGeometry>
        </mxCell>
        <mxCell id="G6jSrBH-n4NakRMyt-s5-29" value="" style="endArrow=classic;html=1;exitX=0.818;exitY=1.08;exitDx=0;exitDy=0;exitPerimeter=0;" edge="1" parent="1" source="G6jSrBH-n4NakRMyt-s5-14">
          <mxGeometry width="50" height="50" relative="1" as="geometry">
            <mxPoint x="580" y="350" as="sourcePoint" />
            <mxPoint x="790" y="284" as="targetPoint" />
          </mxGeometry>
        </mxCell>
        <mxCell id="G6jSrBH-n4NakRMyt-s5-30" value="נתוני מידע&lt;br&gt;רפואי- מבוטח" style="edgeLabel;html=1;align=center;verticalAlign=middle;resizable=0;points=[];" vertex="1" connectable="0" parent="G6jSrBH-n4NakRMyt-s5-29">
          <mxGeometry x="0.0909" relative="1" as="geometry">
            <mxPoint as="offset" />
          </mxGeometry>
        </mxCell>
        <mxCell id="G6jSrBH-n4NakRMyt-s5-31" value="נתוני מידע&lt;br&gt;רפואי חולה ״מורכב״" style="endArrow=classic;html=1;exitX=1.025;exitY=0.375;exitDx=0;exitDy=0;exitPerimeter=0;entryX=0.25;entryY=1;entryDx=0;entryDy=0;" edge="1" parent="1" source="G6jSrBH-n4NakRMyt-s5-3" target="G6jSrBH-n4NakRMyt-s5-15">
          <mxGeometry width="50" height="50" relative="1" as="geometry">
            <mxPoint x="980" y="350" as="sourcePoint" />
            <mxPoint x="1030" y="300" as="targetPoint" />
            <Array as="points">
              <mxPoint x="888" y="315" />
            </Array>
          </mxGeometry>
        </mxCell>
        <mxCell id="G6jSrBH-n4NakRMyt-s5-32" value="" style="endArrow=classic;html=1;exitX=0.918;exitY=1.04;exitDx=0;exitDy=0;entryX=1;entryY=0.75;entryDx=0;entryDy=0;exitPerimeter=0;" edge="1" parent="1" source="G6jSrBH-n4NakRMyt-s5-15" target="G6jSrBH-n4NakRMyt-s5-3">
          <mxGeometry width="50" height="50" relative="1" as="geometry">
            <mxPoint x="1060" y="350" as="sourcePoint" />
            <mxPoint x="1110" y="300" as="targetPoint" />
            <Array as="points">
              <mxPoint x="960" y="260" />
              <mxPoint x="960" y="345" />
            </Array>
          </mxGeometry>
        </mxCell>
        <mxCell id="G6jSrBH-n4NakRMyt-s5-33" value="הפקת מכתב&lt;br&gt;שחרור&lt;br&gt;וסיכום מפגש" style="edgeLabel;html=1;align=center;verticalAlign=middle;resizable=0;points=[];" vertex="1" connectable="0" parent="G6jSrBH-n4NakRMyt-s5-32">
          <mxGeometry x="-0.3174" y="1" relative="1" as="geometry">
            <mxPoint x="-1" y="-51.99" as="offset" />
          </mxGeometry>
        </mxCell>
        <mxCell id="G6jSrBH-n4NakRMyt-s5-34" value="&amp;nbsp;תיקים רפואיים" style="rounded=0;whiteSpace=wrap;html=1;fillColor=#dae8fc;strokeColor=#6c8ebf;gradientColor=#ffffff;perimeterSpacing=1;align=right;" vertex="1" parent="1">
          <mxGeometry x="680" y="470" width="160" height="30" as="geometry" />
        </mxCell>
        <mxCell id="G6jSrBH-n4NakRMyt-s5-35" value="" style="endArrow=none;html=1;exitX=0.25;exitY=1;exitDx=0;exitDy=0;entryX=0.25;entryY=0;entryDx=0;entryDy=0;" edge="1" parent="1" source="G6jSrBH-n4NakRMyt-s5-34" target="G6jSrBH-n4NakRMyt-s5-34">
          <mxGeometry width="50" height="50" relative="1" as="geometry">
            <mxPoint x="680" y="460" as="sourcePoint" />
            <mxPoint x="730" y="410" as="targetPoint" />
          </mxGeometry>
        </mxCell>
        <mxCell id="G6jSrBH-n4NakRMyt-s5-36" value="D1" style="text;html=1;strokeColor=none;fillColor=none;align=center;verticalAlign=middle;whiteSpace=wrap;rounded=0;" vertex="1" parent="1">
          <mxGeometry x="680" y="475" width="40" height="20" as="geometry" />
        </mxCell>
        <mxCell id="G6jSrBH-n4NakRMyt-s5-39" value="נתונים&amp;nbsp;&lt;br&gt;רפואיים" style="endArrow=classic;html=1;entryX=0.75;entryY=0;entryDx=0;entryDy=0;" edge="1" parent="1" target="G6jSrBH-n4NakRMyt-s5-34">
          <mxGeometry x="0.017" width="50" height="50" relative="1" as="geometry">
            <mxPoint x="800" y="370" as="sourcePoint" />
            <mxPoint x="820" y="320" as="targetPoint" />
            <mxPoint as="offset" />
          </mxGeometry>
        </mxCell>
        <mxCell id="G6jSrBH-n4NakRMyt-s5-40" value="עדכון נתוני&amp;nbsp;&lt;br&gt;מטופל" style="endArrow=classic;html=1;" edge="1" parent="1">
          <mxGeometry width="50" height="50" relative="1" as="geometry">
            <mxPoint x="730" y="465" as="sourcePoint" />
            <mxPoint x="730" y="370" as="targetPoint" />
          </mxGeometry>
        </mxCell>
        <mxCell id="G6jSrBH-n4NakRMyt-s5-41" value="נתוני&amp;nbsp;&lt;br&gt;מטופל" style="endArrow=classic;html=1;entryX=0.75;entryY=0;entryDx=0;entryDy=0;exitX=0.75;exitY=1;exitDx=0;exitDy=0;" edge="1" parent="1" source="G6jSrBH-n4NakRMyt-s5-34" target="G6jSrBH-n4NakRMyt-s5-2">
          <mxGeometry width="50" height="50" relative="1" as="geometry">
            <mxPoint x="710" y="510" as="sourcePoint" />
            <mxPoint x="760" y="460" as="targetPoint" />
          </mxGeometry>
        </mxCell>
        <mxCell id="G6jSrBH-n4NakRMyt-s5-42" value="עדכון נתוני&lt;br&gt;מטופל" style="endArrow=classic;html=1;" edge="1" parent="1">
          <mxGeometry width="50" height="50" relative="1" as="geometry">
            <mxPoint x="732" y="649" as="sourcePoint" />
            <mxPoint x="732" y="505" as="targetPoint" />
          </mxGeometry>
        </mxCell>
        <mxCell id="G6jSrBH-n4NakRMyt-s5-43" value="&amp;nbsp;הרשאות לתיק&amp;nbsp;" style="rounded=0;whiteSpace=wrap;html=1;fillColor=#dae8fc;strokeColor=#6c8ebf;gradientColor=#ffffff;perimeterSpacing=1;align=right;" vertex="1" parent="1">
          <mxGeometry x="940" y="676.25" width="140" height="30" as="geometry" />
        </mxCell>
        <mxCell id="G6jSrBH-n4NakRMyt-s5-44" value="D3" style="text;html=1;strokeColor=none;fillColor=none;align=center;verticalAlign=middle;whiteSpace=wrap;rounded=0;" vertex="1" parent="1">
          <mxGeometry x="940" y="681.25" width="40" height="20" as="geometry" />
        </mxCell>
        <mxCell id="G6jSrBH-n4NakRMyt-s5-46" value="נתוני&amp;nbsp;&lt;br&gt;מורשה&lt;br&gt;לתיק רפואי" style="endArrow=classic;html=1;entryX=1;entryY=0.5;entryDx=0;entryDy=0;exitX=0;exitY=0.5;exitDx=0;exitDy=0;" edge="1" parent="1" source="G6jSrBH-n4NakRMyt-s5-44" target="G6jSrBH-n4NakRMyt-s5-2">
          <mxGeometry width="50" height="50" relative="1" as="geometry">
            <mxPoint x="930" y="690" as="sourcePoint" />
            <mxPoint x="840" y="540" as="targetPoint" />
          </mxGeometry>
        </mxCell>
        <mxCell id="G6jSrBH-n4NakRMyt-s5-47" value="סיכום ביקורת" style="rounded=0;whiteSpace=wrap;html=1;fillColor=#dae8fc;strokeColor=#6c8ebf;gradientColor=#ffffff;perimeterSpacing=1;align=right;" vertex="1" parent="1">
          <mxGeometry x="940" y="790" width="140" height="30" as="geometry" />
        </mxCell>
        <mxCell id="G6jSrBH-n4NakRMyt-s5-48" value="D4" style="text;html=1;strokeColor=none;fillColor=none;align=center;verticalAlign=middle;whiteSpace=wrap;rounded=0;" vertex="1" parent="1">
          <mxGeometry x="940" y="795" width="40" height="20" as="geometry" />
        </mxCell>
        <mxCell id="G6jSrBH-n4NakRMyt-s5-49" value="" style="endArrow=none;html=1;" edge="1" parent="1">
          <mxGeometry width="50" height="50" relative="1" as="geometry">
            <mxPoint x="980" y="820" as="sourcePoint" />
            <mxPoint x="980" y="790" as="targetPoint" />
          </mxGeometry>
        </mxCell>
        <mxCell id="G6jSrBH-n4NakRMyt-s5-50" value="" style="endArrow=none;html=1;" edge="1" parent="1">
          <mxGeometry width="50" height="50" relative="1" as="geometry">
            <mxPoint x="979" y="706.25" as="sourcePoint" />
            <mxPoint x="979" y="676.25" as="targetPoint" />
          </mxGeometry>
        </mxCell>
        <mxCell id="G6jSrBH-n4NakRMyt-s5-51" value="נתוני סיכום&lt;br&gt;ביקורת מטופל" style="endArrow=classic;html=1;exitX=0;exitY=0;exitDx=0;exitDy=0;" edge="1" parent="1" source="G6jSrBH-n4NakRMyt-s5-48" target="G6jSrBH-n4NakRMyt-s5-2">
          <mxGeometry width="50" height="50" relative="1" as="geometry">
            <mxPoint x="740" y="640" as="sourcePoint" />
            <mxPoint x="790" y="590" as="targetPoint" />
          </mxGeometry>
        </mxCell>
        <mxCell id="G6jSrBH-n4NakRMyt-s5-52" value="הזנת פרטי הזדהות" style="endArrow=classic;html=1;" edge="1" parent="1">
          <mxGeometry width="50" height="50" relative="1" as="geometry">
            <mxPoint x="521" y="665" as="sourcePoint" />
            <mxPoint x="679" y="665" as="targetPoint" />
          </mxGeometry>
        </mxCell>
        <mxCell id="G6jSrBH-n4NakRMyt-s5-53" value="בקשת הרשאה לתיק&amp;nbsp;&lt;br&gt;הרפואי" style="endArrow=classic;html=1;exitX=1;exitY=0.5;exitDx=0;exitDy=0;entryX=0;entryY=0.5;entryDx=0;entryDy=0;" edge="1" parent="1" source="G6jSrBH-n4NakRMyt-s5-10" target="G6jSrBH-n4NakRMyt-s5-2">
          <mxGeometry width="50" height="50" relative="1" as="geometry">
            <mxPoint x="650" y="760" as="sourcePoint" />
            <mxPoint x="700" y="710" as="targetPoint" />
          </mxGeometry>
        </mxCell>
        <mxCell id="G6jSrBH-n4NakRMyt-s5-54" value="נתוני סיכום ביקור" style="endArrow=classic;html=1;entryX=0.013;entryY=0.836;entryDx=0;entryDy=0;entryPerimeter=0;" edge="1" parent="1" target="G6jSrBH-n4NakRMyt-s5-2">
          <mxGeometry width="50" height="50" relative="1" as="geometry">
            <mxPoint x="523" y="719" as="sourcePoint" />
            <mxPoint x="700" y="710" as="targetPoint" />
          </mxGeometry>
        </mxCell>
        <mxCell id="G6jSrBH-n4NakRMyt-s5-55" value="אישור/דחיית הרשאה&amp;nbsp;" style="endArrow=classic;html=1;" edge="1" parent="1">
          <mxGeometry width="50" height="50" relative="1" as="geometry">
            <mxPoint x="710" y="740" as="sourcePoint" />
            <mxPoint x="470" y="730" as="targetPoint" />
            <Array as="points">
              <mxPoint x="710" y="760" />
              <mxPoint x="470" y="760" />
            </Array>
          </mxGeometry>
        </mxCell>
        <mxCell id="G6jSrBH-n4NakRMyt-s5-56" value="קליטת/דחיית הזדהות במע׳&amp;nbsp;" style="endArrow=classic;html=1;exitX=0.331;exitY=1.006;exitDx=0;exitDy=0;exitPerimeter=0;entryX=0.208;entryY=1.014;entryDx=0;entryDy=0;entryPerimeter=0;" edge="1" parent="1" source="G6jSrBH-n4NakRMyt-s5-2" target="G6jSrBH-n4NakRMyt-s5-10">
          <mxGeometry width="50" height="50" relative="1" as="geometry">
            <mxPoint x="720" y="750" as="sourcePoint" />
            <mxPoint x="480" y="740" as="targetPoint" />
            <Array as="points">
              <mxPoint x="733" y="790" />
              <mxPoint x="417" y="790" />
            </Array>
          </mxGeometry>
        </mxCell>
        <mxCell id="G6jSrBH-n4NakRMyt-s5-57" value="מידע רפואי של המטופל" style="endArrow=classic;html=1;entryX=0.385;entryY=0.01;entryDx=0;entryDy=0;entryPerimeter=0;" edge="1" parent="1" target="G6jSrBH-n4NakRMyt-s5-10">
          <mxGeometry width="50" height="50" relative="1" as="geometry">
            <mxPoint x="696" y="650" as="sourcePoint" />
            <mxPoint x="410" y="630" as="targetPoint" />
            <Array as="points">
              <mxPoint x="696" y="630" />
              <mxPoint x="440" y="630" />
            </Array>
          </mxGeometry>
        </mxCell>
        <mxCell id="G6jSrBH-n4NakRMyt-s5-58" value="הרשאת צפיות" style="rounded=0;whiteSpace=wrap;html=1;fillColor=#dae8fc;strokeColor=#6c8ebf;gradientColor=#ffffff;perimeterSpacing=1;align=right;" vertex="1" parent="1">
          <mxGeometry x="670" y="870" width="140" height="30" as="geometry" />
        </mxCell>
        <mxCell id="G6jSrBH-n4NakRMyt-s5-59" value="" style="endArrow=none;html=1;" edge="1" parent="1">
          <mxGeometry width="50" height="50" relative="1" as="geometry">
            <mxPoint x="710" y="900" as="sourcePoint" />
            <mxPoint x="710" y="870" as="targetPoint" />
          </mxGeometry>
        </mxCell>
        <mxCell id="G6jSrBH-n4NakRMyt-s5-60" value="D2" style="text;html=1;strokeColor=none;fillColor=none;align=center;verticalAlign=middle;whiteSpace=wrap;rounded=0;" vertex="1" parent="1">
          <mxGeometry x="670" y="875" width="40" height="20" as="geometry" />
        </mxCell>
        <mxCell id="G6jSrBH-n4NakRMyt-s5-61" value="הזנת פרטי שימוש במע׳&lt;br&gt;והמטופל" style="endArrow=classic;html=1;exitX=0.556;exitY=1.006;exitDx=0;exitDy=0;entryX=0.69;entryY=-0.094;entryDx=0;entryDy=0;entryPerimeter=0;exitPerimeter=0;" edge="1" parent="1" source="G6jSrBH-n4NakRMyt-s5-2" target="G6jSrBH-n4NakRMyt-s5-58">
          <mxGeometry x="0.4589" y="-1" width="50" height="50" relative="1" as="geometry">
            <mxPoint x="670" y="870" as="sourcePoint" />
            <mxPoint x="720" y="820" as="targetPoint" />
            <mxPoint as="offset" />
          </mxGeometry>
        </mxCell>
        <mxCell id="G6jSrBH-n4NakRMyt-s5-62" value="" style="endArrow=classic;html=1;" edge="1" parent="1">
          <mxGeometry width="50" height="50" relative="1" as="geometry">
            <mxPoint x="1020" y="819" as="sourcePoint" />
            <mxPoint x="1020" y="900" as="targetPoint" />
          </mxGeometry>
        </mxCell>
        <mxCell id="G6jSrBH-n4NakRMyt-s5-63" value="קופת חולים" style="rounded=0;whiteSpace=wrap;html=1;gradientColor=#ffffff;fillColor=#FFCCE6;" vertex="1" parent="1">
          <mxGeometry x="965" y="1030" width="110" height="50" as="geometry" />
        </mxCell>
        <mxCell id="G6jSrBH-n4NakRMyt-s5-65" value="&amp;nbsp;תיקים רפואיים" style="rounded=0;whiteSpace=wrap;html=1;fillColor=#dae8fc;strokeColor=#6c8ebf;gradientColor=#ffffff;perimeterSpacing=1;align=right;" vertex="1" parent="1">
          <mxGeometry x="690" y="1030" width="140" height="30" as="geometry" />
        </mxCell>
        <mxCell id="G6jSrBH-n4NakRMyt-s5-66" value="D1" style="text;html=1;strokeColor=none;fillColor=none;align=center;verticalAlign=middle;whiteSpace=wrap;rounded=0;" vertex="1" parent="1">
          <mxGeometry x="690" y="1035" width="40" height="20" as="geometry" />
        </mxCell>
        <mxCell id="G6jSrBH-n4NakRMyt-s5-67" value="" style="endArrow=none;html=1;exitX=0.25;exitY=1;exitDx=0;exitDy=0;entryX=0.25;entryY=0;entryDx=0;entryDy=0;" edge="1" parent="1" source="G6jSrBH-n4NakRMyt-s5-65" target="G6jSrBH-n4NakRMyt-s5-65">
          <mxGeometry width="50" height="50" relative="1" as="geometry">
            <mxPoint x="700" y="1065" as="sourcePoint" />
            <mxPoint x="705" y="1029" as="targetPoint" />
          </mxGeometry>
        </mxCell>
        <mxCell id="G6jSrBH-n4NakRMyt-s5-69" value="נתוני תיק רפואי" style="endArrow=classic;html=1;exitX=0;exitY=0.5;exitDx=0;exitDy=0;entryX=1;entryY=0.5;entryDx=0;entryDy=0;" edge="1" parent="1" source="G6jSrBH-n4NakRMyt-s5-7" target="G6jSrBH-n4NakRMyt-s5-65">
          <mxGeometry width="50" height="50" relative="1" as="geometry">
            <mxPoint x="870" y="1000" as="sourcePoint" />
            <mxPoint x="920" y="950" as="targetPoint" />
          </mxGeometry>
        </mxCell>
        <mxCell id="G6jSrBH-n4NakRMyt-s5-71" value="אישור/דחייה&lt;br&gt;החרגה" style="endArrow=classic;html=1;entryX=0.25;entryY=1;entryDx=0;entryDy=0;" edge="1" parent="1" target="G6jSrBH-n4NakRMyt-s5-9">
          <mxGeometry width="50" height="50" relative="1" as="geometry">
            <mxPoint x="178" y="679" as="sourcePoint" />
            <mxPoint x="520" y="730" as="targetPoint" />
          </mxGeometry>
        </mxCell>
        <mxCell id="G6jSrBH-n4NakRMyt-s5-72" value="תיקים רפואיים" style="rounded=0;whiteSpace=wrap;html=1;fillColor=#dae8fc;strokeColor=#6c8ebf;gradientColor=#ffffff;perimeterSpacing=1;align=right;" vertex="1" parent="1">
          <mxGeometry x="-110" y="702.5" width="140" height="30" as="geometry" />
        </mxCell>
        <mxCell id="G6jSrBH-n4NakRMyt-s5-73" value="D1" style="text;html=1;strokeColor=none;fillColor=none;align=center;verticalAlign=middle;whiteSpace=wrap;rounded=0;" vertex="1" parent="1">
          <mxGeometry x="-110" y="707.5" width="40" height="20" as="geometry" />
        </mxCell>
        <mxCell id="G6jSrBH-n4NakRMyt-s5-74" value="" style="endArrow=none;html=1;entryX=1;entryY=0;entryDx=0;entryDy=0;exitX=1;exitY=1;exitDx=0;exitDy=0;" edge="1" parent="1" source="G6jSrBH-n4NakRMyt-s5-73" target="G6jSrBH-n4NakRMyt-s5-73">
          <mxGeometry width="50" height="50" relative="1" as="geometry">
            <mxPoint x="200" y="810" as="sourcePoint" />
            <mxPoint x="250" y="760" as="targetPoint" />
          </mxGeometry>
        </mxCell>
        <mxCell id="G6jSrBH-n4NakRMyt-s5-78" value="הזמנת פרטי שימוש&amp;nbsp;&lt;br&gt;במערכת ובמטופל" style="endArrow=classic;html=1;exitX=0.553;exitY=1.085;exitDx=0;exitDy=0;exitPerimeter=0;entryX=0;entryY=0.5;entryDx=0;entryDy=0;" edge="1" parent="1" source="G6jSrBH-n4NakRMyt-s5-5" target="G6jSrBH-n4NakRMyt-s5-60">
          <mxGeometry x="0.2568" y="-2" width="50" height="50" relative="1" as="geometry">
            <mxPoint x="550" y="830" as="sourcePoint" />
            <mxPoint x="600" y="780" as="targetPoint" />
            <Array as="points">
              <mxPoint x="213" y="880" />
            </Array>
            <mxPoint as="offset" />
          </mxGeometry>
        </mxCell>
        <mxCell id="G6jSrBH-n4NakRMyt-s5-81" value="הזנת נתוני תיעוד" style="endArrow=classic;html=1;exitX=0.648;exitY=1.094;exitDx=0;exitDy=0;exitPerimeter=0;entryX=1.02;entryY=0.633;entryDx=0;entryDy=0;entryPerimeter=0;" edge="1" parent="1" source="G6jSrBH-n4NakRMyt-s5-58" target="G6jSrBH-n4NakRMyt-s5-6">
          <mxGeometry width="50" height="50" relative="1" as="geometry">
            <mxPoint x="640" y="980" as="sourcePoint" />
            <mxPoint x="690" y="930" as="targetPoint" />
          </mxGeometry>
        </mxCell>
        <mxCell id="G6jSrBH-n4NakRMyt-s5-82" value="מאגר תיעודים" style="rounded=0;whiteSpace=wrap;html=1;fillColor=#dae8fc;strokeColor=#6c8ebf;gradientColor=#ffffff;perimeterSpacing=1;align=right;" vertex="1" parent="1">
          <mxGeometry x="110" y="965" width="140" height="30" as="geometry" />
        </mxCell>
        <mxCell id="G6jSrBH-n4NakRMyt-s5-83" value="" style="endArrow=none;html=1;exitX=0.25;exitY=1;exitDx=0;exitDy=0;entryX=0.25;entryY=0;entryDx=0;entryDy=0;" edge="1" parent="1">
          <mxGeometry width="50" height="50" relative="1" as="geometry">
            <mxPoint x="149" y="996" as="sourcePoint" />
            <mxPoint x="149" y="964" as="targetPoint" />
          </mxGeometry>
        </mxCell>
        <mxCell id="G6jSrBH-n4NakRMyt-s5-84" value="D5" style="text;html=1;strokeColor=none;fillColor=none;align=center;verticalAlign=middle;whiteSpace=wrap;rounded=0;" vertex="1" parent="1">
          <mxGeometry x="110" y="970" width="40" height="20" as="geometry" />
        </mxCell>
        <mxCell id="G6jSrBH-n4NakRMyt-s5-86" value="" style="edgeStyle=orthogonalEdgeStyle;rounded=0;orthogonalLoop=1;jettySize=auto;html=1;" edge="1" parent="1" source="G6jSrBH-n4NakRMyt-s5-87">
          <mxGeometry relative="1" as="geometry">
            <mxPoint x="220" y="455" as="targetPoint" />
          </mxGeometry>
        </mxCell>
        <mxCell id="G6jSrBH-n4NakRMyt-s5-87" value="1.0&lt;br&gt;&lt;hr&gt;טיפול בחיסיון של מטופל" style="rounded=1;whiteSpace=wrap;html=1;fillColor=#FF99FF;" vertex="1" parent="1">
          <mxGeometry x="150" y="300" width="140" height="70" as="geometry" />
        </mxCell>
        <mxCell id="G6jSrBH-n4NakRMyt-s5-88" value="לשכת המשפטים של משרד הבריאות" style="rounded=0;whiteSpace=wrap;html=1;gradientColor=#ffffff;fillColor=#FFCCE6;" vertex="1" parent="1">
          <mxGeometry x="160" y="130" width="110" height="50" as="geometry" />
        </mxCell>
        <mxCell id="G6jSrBH-n4NakRMyt-s5-89" value="אישור עדכון &lt;br&gt;חיסיון רפואי&amp;nbsp;" style="endArrow=classic;html=1;exitX=0.136;exitY=-0.029;exitDx=0;exitDy=0;exitPerimeter=0;" edge="1" parent="1" source="G6jSrBH-n4NakRMyt-s5-87">
          <mxGeometry width="50" height="50" relative="1" as="geometry">
            <mxPoint x="120" y="230" as="sourcePoint" />
            <mxPoint x="170" y="180" as="targetPoint" />
          </mxGeometry>
        </mxCell>
        <mxCell id="G6jSrBH-n4NakRMyt-s5-90" value="אישור&amp;nbsp;&lt;br&gt;נתוני&lt;br&gt;רופאים&lt;br&gt;מורשים" style="endArrow=classic;html=1;exitX=0.671;exitY=-0.043;exitDx=0;exitDy=0;exitPerimeter=0;" edge="1" parent="1" source="G6jSrBH-n4NakRMyt-s5-87">
          <mxGeometry width="50" height="50" relative="1" as="geometry">
            <mxPoint x="245" y="290" as="sourcePoint" />
            <mxPoint x="245" y="180" as="targetPoint" />
          </mxGeometry>
        </mxCell>
        <mxCell id="G6jSrBH-n4NakRMyt-s5-91" value="נתוני הגדרת&amp;nbsp;&lt;br&gt;חיסיון מידע&lt;br&gt;רפואי" style="endArrow=classic;html=1;exitX=1;exitY=0.25;exitDx=0;exitDy=0;entryX=1.014;entryY=0.614;entryDx=0;entryDy=0;entryPerimeter=0;" edge="1" parent="1" source="G6jSrBH-n4NakRMyt-s5-88" target="G6jSrBH-n4NakRMyt-s5-87">
          <mxGeometry width="50" height="50" relative="1" as="geometry">
            <mxPoint x="390" y="380" as="sourcePoint" />
            <mxPoint x="300" y="340" as="targetPoint" />
            <Array as="points">
              <mxPoint x="320" y="143" />
              <mxPoint x="320" y="343" />
            </Array>
          </mxGeometry>
        </mxCell>
        <mxCell id="G6jSrBH-n4NakRMyt-s5-92" value="רופאים&lt;br&gt;נתוני&lt;br&gt;מורשים" style="endArrow=classic;html=1;exitX=0;exitY=0.5;exitDx=0;exitDy=0;entryX=-0.021;entryY=0.671;entryDx=0;entryDy=0;entryPerimeter=0;" edge="1" parent="1" source="G6jSrBH-n4NakRMyt-s5-88" target="G6jSrBH-n4NakRMyt-s5-87">
          <mxGeometry width="50" height="50" relative="1" as="geometry">
            <mxPoint x="390" y="380" as="sourcePoint" />
            <mxPoint x="120" y="340" as="targetPoint" />
            <Array as="points">
              <mxPoint x="110" y="155" />
              <mxPoint x="110" y="347" />
            </Array>
          </mxGeometry>
        </mxCell>
        <mxCell id="G6jSrBH-n4NakRMyt-s5-93" value="הרשאות לתיק" style="rounded=0;whiteSpace=wrap;html=1;fillColor=#dae8fc;strokeColor=#6c8ebf;gradientColor=#ffffff;perimeterSpacing=1;align=right;" vertex="1" parent="1">
          <mxGeometry x="140" y="460" width="140" height="30" as="geometry" />
        </mxCell>
        <mxCell id="G6jSrBH-n4NakRMyt-s5-94" value="" style="endArrow=none;html=1;" edge="1" parent="1" source="G6jSrBH-n4NakRMyt-s5-95">
          <mxGeometry width="50" height="50" relative="1" as="geometry">
            <mxPoint x="170" y="501" as="sourcePoint" />
            <mxPoint x="170" y="460" as="targetPoint" />
          </mxGeometry>
        </mxCell>
        <mxCell id="G6jSrBH-n4NakRMyt-s5-95" value="D3" style="text;html=1;strokeColor=none;fillColor=none;align=center;verticalAlign=middle;whiteSpace=wrap;rounded=0;" vertex="1" parent="1">
          <mxGeometry x="140" y="455" width="30" height="40" as="geometry" />
        </mxCell>
        <mxCell id="G6jSrBH-n4NakRMyt-s5-96" value="" style="endArrow=none;html=1;" edge="1" parent="1">
          <mxGeometry width="50" height="50" relative="1" as="geometry">
            <mxPoint x="170" y="490" as="sourcePoint" />
            <mxPoint x="170" y="460" as="targetPoint" />
          </mxGeometry>
        </mxCell>
      </root>
    </mxGraphModel>
  </diagram>
</mxfile>
